<svg width="48" height="48" viewBox="0 0 48 48" fill="none" xmlns="http://www.w3.org/2000/svg">
<rect x="11" y="7" width="30" height="38" fill="black"/>
<path d="M7 3H37V41H7V3Z" fill="#EAEAEA"/>
<path d="M37 3H7V41" stroke="black" stroke-width="1.2"/>
<line x1="13" y1="30.4" x2="29" y2="30.4" stroke="black" stroke-width="1.2"/>
<line x1="13" y1="34.4" x2="23" y2="34.4" stroke="black" stroke-width="1.2"/>
<path d="M27 19C27 20.5575 26.4806 22.0704 25.524 23.2995C24.5674 24.5285 23.2282 25.4035 21.7184 25.7858C20.2086 26.1681 18.6144 26.036 17.1881 25.4104C15.7619 24.7848 14.585 23.7014 13.8437 22.3316C13.1024 20.9619 12.8391 19.3841 13.0955 17.8478C13.3518 16.3116 14.1132 14.9048 15.259 13.8499C16.4049 12.7951 17.8698 12.1525 19.422 12.0239C20.9741 11.8953 22.5248 12.288 23.8286 13.1398L20 19L27 19Z" fill="black"/>
</svg>