<svg id="Layer_1" data-name="Layer 1" xmlns="http://www.w3.org/2000/svg" viewBox="0 0 910.23 869.86"><defs><style>.cls-1{fill:#3d3d4f;}.cls-2{fill:#5d616a;}.cls-3{fill:#0075a5;}.cls-4{fill:#ffb057;}</style></defs><title>2</title><polygon class="cls-1" points="873.78 797.97 876.53 263.81 540.83 353.58 539.45 635.62 873.78 797.97"/><polygon class="cls-2" points="0 869.86 905.42 869.86 905.42 802.1 729.32 731.93 538.08 627.37 531.2 667.27 477.54 652.13 137.72 705.79 0 705.79 0 869.86"/><polygon class="cls-3" points="101.95 89.43 349.59 171.98 356.47 638.38 96.44 679.65 101.95 89.43"/><polygon class="cls-2" points="385.36 169.22 385.36 110.06 75.81 0 75.81 66.04 385.36 169.22"/><polygon class="cls-3" points="383.99 614.3 383.99 269.66 476.17 290.98 476.17 598.13 383.99 614.3"/><polygon class="cls-4" points="118.8 132.77 219.92 162.35 219.92 269.31 121.89 267.94 118.8 132.77"/><polygon class="cls-4" points="118.8 306.12 219.92 335.7 219.92 433.04 121.89 441.29 118.8 306.12"/><polygon class="cls-4" points="118.8 491.51 219.92 521.09 219.92 618.43 121.89 626.68 118.8 491.51"/><polygon class="cls-4" points="245.75 162.69 338.56 189.84 338.56 279.18 248.59 286.75 245.75 162.69"/><polygon class="cls-4" points="245.75 321.8 338.56 348.95 338.56 438.29 248.59 445.86 245.75 321.8"/><polygon class="cls-4" points="245.75 491.95 338.56 519.1 338.56 608.44 248.59 616.02 245.75 491.95"/><polygon class="cls-1" points="705.93 807.6 769.21 744.31 481.67 623.59 39.35 700.29 30.4 775.96 463.78 672.77 705.93 807.6"/><polygon class="cls-3" points="518.13 345.33 910.24 211.19 910.24 275.16 517.44 387.98 518.13 345.33"/><polygon class="cls-3" points="522.71 386.47 522.71 645.25 889.6 842 889.6 784.9 556.65 620.49 556.65 376.89 553.9 361.15 522.71 386.47"/><polygon class="cls-3" points="889.6 784.9 889.6 263.81 856.58 263.81 856.58 788 889.6 784.9"/><polygon class="cls-3" points="577.98 645.6 577.98 345.33 617.19 345.33 617.19 665.2 577.98 645.6"/><polygon class="cls-3" points="685.29 697.19 685.29 320.56 736.88 309.21 736.88 730.21 685.29 697.19"/></svg>
