<svg id="Layer_1" data-name="Layer 1" xmlns="http://www.w3.org/2000/svg" viewBox="0 0 1054.65 639.2"><defs><style>.cls-1{fill:#757981;}.cls-2{fill:#feae3d;}.cls-3{fill:#0677ac;}.cls-4{fill:#3e3c51;}.cls-5{fill:#5d616b;}.cls-6{fill:#fff;}</style></defs><title>0</title><polygon class="cls-1" points="859.01 383.1 859.01 73.98 0 0 0 497.47 406.5 383.86 406.5 141.91 466.21 141.91 465.9 99.5 480.67 100.78 598.44 143.22 650.43 143.05 650.43 383.1 859.01 383.1"/><polygon class="cls-2" points="650.43 143.05 650.43 56.13 859.01 73.98 859.01 383.1 650.43 383.1 650.43 143.05"/><polygon class="cls-3" points="482.94 422.36 480.67 100.78 637.31 157.77 637.31 384.99 482.94 422.36"/><polygon class="cls-4" points="482.94 422.36 469.54 421.7 465.9 99.5 480.67 100.78 482.94 422.36"/><polygon class="cls-4" points="637.31 384.99 650.43 384.99 650.43 143.05 597.98 143.05 637.31 157.77 637.31 384.99"/><polygon class="cls-5" points="474 421.92 353.95 639.2 859.01 639.2 859.01 383.1 650.43 383.1 650.43 384.99 637.31 384.99 482.94 422.36 474 421.92"/><polygon class="cls-5" points="0 497.47 0 639.06 420.28 378.01 0 497.47"/><polygon class="cls-6" points="0 639.06 353.95 639.2 474 421.92 469.54 421.7 466.35 161.64 427.12 161.64 427.12 383.67 0 639.06"/><polygon class="cls-2" points="847.92 291.57 788.48 282.33 788.48 241.75 847.92 231.18 847.92 291.57"/><polygon class="cls-2" points="774.48 281.1 735.1 274.97 735.1 248.09 774.48 241.09 774.48 281.1"/><polygon class="cls-2" points="718.93 271.95 695.53 268.31 695.53 252.33 718.93 248.17 718.93 271.95"/><polygon class="cls-4" points="466.21 141.91 406.5 141.91 406.5 383.67 421.23 383.67 421.23 157.58 466.31 157.58 466.21 141.91"/><polyline class="cls-2" points="859.01 386.61 1054.65 386.61 1054.65 38.12 859.01 73.98"/><path class="cls-5" d="M1077.88,616.71V863.92L882.24,869.3l-88.37-88.37s10.66-98.88,12.84-102.14,75.53-65.58,75.53-65.58l195.64-.58Z" transform="translate(-23.23 -230.1)"/></svg>