            <svg width="585" height="574" viewBox="0 0 585 574" fill="none" xmlns="http://www.w3.org/2000/svg">
              <rect x="312.528" y="48.9998" width="272" height="442" fill="#CCDAE4" />
              <rect x="0.527588" y="330" width="288" height="244" fill="#EAEAEA" />
              <rect x="44.5276" width="244" height="306" fill="black" />
              <mask id="mask0_9383_1297" style="mask-type:alpha" maskUnits="userSpaceOnUse" x="0" y="0" width="585" height="574">
                <path fill-rule="evenodd" clip-rule="evenodd" d="M288.528 0H44.5276V306H288.528V0ZM312.528 49H584.528V491H312.528V49ZM0.527588 330H288.528V574H0.527588V330Z" fill="black" />
              </mask>
              <g mask="url(#mask0_9383_1297)">
                <path d="M81.592 26.5749L141.728 468.22" stroke="white" stroke-width="4" />
                <path d="M139.728 468.22L121.677 318.639" stroke="black" stroke-width="4" />
                <path d="M99.1235 157.042L143.057 120.259" stroke="white" stroke-width="4" />
                <path d="M248.046 442.281L169.489 202.028M104.191 2.32436L169.489 202.028M169.489 202.028L107.891 222.303" stroke="white" stroke-width="12" />
                <path d="M248.046 442.281L208.011 319.842" stroke="black" stroke-width="12" />
                <path d="M107.978 90.5143L56.5769 68.5043L109.148 36.5026L160.549 58.5125L107.978 90.5143Z" fill="#CBFF77" />
                <path d="M160.549 58.5124L130.713 -15.8931L93.9031 -34.1211L109.148 36.5024L160.549 58.5124Z" fill="white" />
                <path d="M43.124 -8.94227L56.577 68.5043L109.148 36.5025L93.9045 -34.1207L43.124 -8.94227Z" fill="black" />
                <mask id="mask1_9383_1297" style="mask-type:alpha" maskUnits="userSpaceOnUse" x="56" y="36" width="105" height="55">
                  <path d="M107.978 90.5143L56.5767 68.5043L109.148 36.5026L160.549 58.5125L107.978 90.5143Z" fill="#CBFF77" />
                </mask>
                <g mask="url(#mask1_9383_1297)">
                  <path d="M107.978 90.5143L56.5767 68.5043L109.148 36.5026L107.978 90.5143Z" fill="#CBFF77" />
                  <path d="M75.3169 -25.4581L91.6818 104.081" stroke="black" stroke-width="4" />
                  <path d="M179.249 228.344L91.1482 -46.4944" stroke="black" stroke-width="8" />
                </g>
                <path d="M335.759 219.613L335.758 314.973H155.09L155.09 271.407L193.329 260.439V260.464L335.759 219.613Z" fill="#CCDAE4" />
                <path d="M155.09 271.431L155.09 250.854L422.574 174.136V194.868L155.09 271.431Z" fill="white" />
                <path d="M155.068 250.699V310.62L176.115 325.334V265.412L155.068 250.699Z" fill="black" />
                <path d="M28.1466 497.394L287.83 585.365L459.311 497.394L199.134 408.978L28.1466 497.394Z" fill="#CCDAE4" />
                <path d="M199.279 409.027L199.134 408.978L28.1477 497.394L49.5591 504.647L199.134 426.376L309.798 464.161V493.212L447.003 493.211L199.279 409.027Z" fill="black" />
                <path d="M309.798 464.161V493.212L447.003 493.211L301.888 443.896V461.46L309.798 464.161Z" fill="white" />
                <path d="M199.134 555.319L28.1467 497.395L199.134 408.978L199.134 555.319Z" fill="black" />
                <path d="M459.05 -25.6858L459.05 290.785L590.568 382.727V-25.686L459.05 -25.6858Z" fill="black" />
                <path d="M451.049 -72.4741L451.049 288.692L308.619 329.543V-36.6387L451.049 -72.4741Z" fill="white" />
                <path d="M422.576 48.5121L422.576 194.842L337.092 219.36L337.092 48.512L422.576 48.5121Z" fill="#EAEAEA" />
                <path d="M422.576 48.5126L422.576 194.843L337.092 219.36L337.092 48.5125L422.576 48.5126Z" fill="#EAEAEA" />
                <path fill-rule="evenodd" clip-rule="evenodd" d="M422.575 174.137L337.093 198.654L337.093 219.336L422.575 194.868V174.137Z" fill="#CCDAE4" />
                <path d="M422.575 46.8336L422.575 194.869L401.568 180.184L401.568 34.2319L422.575 46.8336Z" fill="black" />
              </g>
            </svg>
