<svg id="Layer_1" data-name="Layer 1" xmlns="http://www.w3.org/2000/svg" viewBox="0 0 976.3 755"><defs><style>.cls-1{fill:#5d616a;}.cls-2{fill:#3d3d4f;}.cls-3{fill:#0076a9;}.cls-4{fill:#ffaf4b;}</style></defs><title>1</title><polygon class="cls-1" points="1.24 88.81 626.03 329.78 626.03 302.45 1.86 0 1.24 88.81"/><polygon class="cls-2" points="0 109.31 251.84 199.67 251.74 673.85 0 755 0 109.31"/><polygon class="cls-3" points="19.87 132.28 19.87 726.43 240.97 663.08 236.62 204.33 19.87 132.28"/><polygon class="cls-2" points="257.53 203.5 403.27 254.84 400.89 624.16 257.74 671.36 257.53 203.5"/><polygon class="cls-3" points="264.57 215.92 390.85 257.32 390.85 617.13 266.23 652.32 264.57 215.92"/><polygon class="cls-2" points="430.6 266.02 625.41 335.37 625.41 543.43 430.6 612.36 430.6 266.02"/><polygon class="cls-3" points="456.27 410.11 562.68 388.37 562.68 332.27 452.96 298.31 456.27 410.11"/><polygon class="cls-3" points="456.27 544.88 562.68 523.14 562.68 467.04 452.96 433.08 456.27 544.88"/><polygon class="cls-4" points="613.61 446.33 553.16 456.48 553.16 404.31 613.61 415.9 613.61 446.33"/><polygon class="cls-1" points="0 755 976.3 755 976.3 484.43 625.41 484.43 625.41 543.43 0 755"/><rect class="cls-1" x="652.11" y="342.82" width="288.79" height="126.7"/><rect class="cls-3" x="693.17" y="360.83" width="206.68" height="90.67"/><rect class="cls-4" x="745.54" y="383.81" width="101.93" height="44.72"/></svg>