<svg width="48" height="48" viewBox="0 0 48 48" fill="none" xmlns="http://www.w3.org/2000/svg">
<rect x="2" y="2" width="26" height="26" fill="#EAEAEA"/>
<path d="M20.9397 20.9397C17.6593 24.2201 12.3407 24.2201 9.0603 20.9397C5.7799 17.6593 5.7799 12.3407 9.0603 9.0603C12.3407 5.7799 17.6593 5.7799 20.9397 9.0603C24.2201 12.3407 24.2201 17.6593 20.9397 20.9397Z" stroke="#2079b3" stroke-width="1.2"/>
<path d="M10 14C12.7614 18 17.2386 18 20 14" stroke="#2079b3" stroke-width="1.2"/>
<path d="M10 9C12.7614 13 17.2386 13 20 9" stroke="#2079b3" stroke-width="1.2"/>
<path d="M42.3137 42.3137C36.0653 48.5621 25.9347 48.5621 19.6863 42.3137C13.4379 36.0653 13.4379 25.9347 19.6863 19.6863C25.9347 13.4379 36.0653 13.4379 42.3137 19.6863C48.5621 25.9347 48.5621 36.0653 42.3137 42.3137Z" fill="#2079b3"/>
<path d="M22 44.3556C24.266 41.6586 27.3483 40 30.7444 40C34.4034 40 37.698 41.9253 40 45" stroke="#EAEAEA" stroke-width="1.2"/>
<circle cx="31" cy="31" r="5" stroke="#EAEAEA" stroke-width="1.2"/>
</svg>
