<?xml version="1.0" encoding="UTF-8" standalone="no"?>
<!-- Created with Inkscape (http://www.inkscape.org/) -->

<svg
   version="1.1"
   id="svg2"
   width="1384.64"
   height="363.21066"
   viewBox="0 0 1384.64 363.21066"
   sodipodi:docname="Logo file.ai"
   xmlns:inkscape="http://www.inkscape.org/namespaces/inkscape"
   xmlns:sodipodi="http://sodipodi.sourceforge.net/DTD/sodipodi-0.dtd"
   xmlns="http://www.w3.org/2000/svg"
   xmlns:svg="http://www.w3.org/2000/svg">
  <defs
     id="defs6">
    <clipPath
       clipPathUnits="userSpaceOnUse"
       id="clipPath36">
      <path
         d="M 0,272.408 H 1038.479 V 0 H 0 Z"
         id="path34" />
    </clipPath>
  </defs>
  <sodipodi:namedview
     id="namedview4"
     pagecolor="#ffffff"
     bordercolor="#000000"
     borderopacity="0.25"
     inkscape:showpageshadow="2"
     inkscape:pageopacity="0.0"
     inkscape:pagecheckerboard="0"
     inkscape:deskcolor="#d1d1d1" />
  <g
     id="g8"
     inkscape:groupmode="layer"
     inkscape:label="Logo file"
     transform="matrix(1.3333333,0,0,-1.3333333,0,363.21067)">
    <g
       id="g10"
       transform="translate(155.4723,204.6485)">
      <path
         d="m 0,0 -11.417,-28.686 h -49.848 v -78.341 H -89.951 V 0 Z"
         style="fill:#231f20;fill-opacity:1;fill-rule:nonzero;stroke:none"
         id="path12" />
    </g>
    <g
       id="g14"
       transform="translate(66.021,98.1217)">
      <path
         d="m 0,0 h 27.686 v 78.341 h 50.009 l 11.019,27.686 H 0 Z M 28.686,-1 H -1 V 107.027 H 90.188 L 78.374,77.341 H 28.686 Z"
         style="fill:#231f20;fill-opacity:1;fill-rule:nonzero;stroke:none"
         id="path16" />
    </g>
    <g
       id="g18"
       transform="translate(144.2514,147.1249)">
      <path
         d="M 0,0 -19.809,-49.576 H 2.833 v 20.85 h 28.686 v -49.536 h -93.582 l 11.417,28.686 13.76,34.569 L -30.888,0 -19.425,28.686 H 31.519 V 0 Z"
         style="fill:#231f20;fill-opacity:1;fill-rule:nonzero;stroke:none"
         id="path20" />
    </g>
    <g
       id="g22"
       transform="translate(82.9253,69.3629)">
      <path
         d="M 0,0 H 92.345 V 48.536 H 64.659 v -20.85 h -23.88 l 20.208,50.576 h 31.358 v 27.686 H 42.24 L 24.904,62.569 Z M 93.345,-1 H -1.475 L 41.562,106.948 H 93.345 V 77.262 H 61.665 L 42.255,28.686 h 21.404 v 20.85 h 29.686 z"
         style="fill:#231f20;fill-opacity:1;fill-rule:nonzero;stroke:none"
         id="path24" />
    </g>
    <g
       id="g26"
       transform="translate(243.1655,154.465)">
      <path
         d="m 0,0 -11.636,-28.401 h 23.272 z m 26.525,-65.061 -8.008,19.644 h -37.034 l -8.008,-19.644 H -46.168 L -8.633,23.147 H 9.133 l 37.535,-88.208 z"
         style="fill:#231f20;fill-opacity:1;fill-rule:nonzero;stroke:none"
         id="path28" />
    </g>
    <g
       id="g30">
      <g
         id="g32"
         clip-path="url(#clipPath36)">
        <g
           id="g38"
           transform="translate(350.0142,123.0607)">
          <path
             d="m 0,0 c 0,2.772 -0.438,5.312 -1.313,7.621 -0.876,2.308 -2.045,4.281 -3.504,5.919 -1.46,1.638 -3.171,2.897 -5.13,3.779 -1.96,0.882 -4.066,1.324 -6.318,1.324 -2.252,0 -4.36,-0.442 -6.318,-1.324 -1.961,-0.882 -3.691,-2.141 -5.193,-3.779 -1.501,-1.638 -2.69,-3.589 -3.566,-5.857 C -32.217,5.416 -32.655,2.854 -32.655,0 v -0.25 c 0,-2.772 0.438,-5.313 1.313,-7.623 0.876,-2.308 2.065,-4.281 3.566,-5.919 1.502,-1.638 3.232,-2.897 5.193,-3.779 1.958,-0.882 4.066,-1.322 6.318,-1.322 2.252,0 4.358,0.44 6.318,1.322 1.959,0.882 3.67,2.141 5.13,3.779 1.459,1.638 2.628,3.611 3.504,5.919 C -0.438,-5.563 0,-3.022 0,-0.25 Z m -0.25,-33.656 v 9.55 c -2.336,-3.146 -5.151,-5.732 -8.445,-7.76 -3.297,-2.027 -7.445,-3.041 -12.45,-3.041 -3.921,0 -7.716,0.75 -11.385,2.252 -3.672,1.501 -6.925,3.732 -9.76,6.694 -2.836,2.959 -5.109,6.587 -6.818,10.885 -1.711,4.295 -2.565,9.237 -2.565,14.826 V 0 c 0,5.587 0.854,10.529 2.565,14.827 1.709,4.295 3.961,7.923 6.756,10.884 2.794,2.96 6.025,5.193 9.697,6.694 3.669,1.502 7.507,2.253 11.51,2.253 5.087,0 9.279,-0.993 12.575,-2.98 3.294,-1.986 6.068,-4.304 8.32,-6.951 v 32.952 h 19.018 v -91.335 z"
             style="fill:#231f20;fill-opacity:1;fill-rule:nonzero;stroke:none"
             id="path40" />
        </g>
        <path
           d="M 386.672,180.74 H 405.69 V 89.405 h -19.018 z"
           style="fill:#231f20;fill-opacity:1;fill-rule:nonzero;stroke:none"
           id="path42" />
        <g
           id="g44"
           transform="translate(463.1167,138.5128)">
          <path
             d="m 0,0 c -2.42,2.627 -5.63,3.941 -9.634,3.941 -4.004,0 -7.237,-1.294 -9.697,-3.879 -2.461,-2.586 -4.066,-6.048 -4.816,-10.384 H 4.504 C 3.919,-6.068 2.418,-2.627 0,0 m 22.959,-19.831 c -0.043,-0.668 -0.105,-1.46 -0.188,-2.377 h -46.668 c 0.917,-4.338 2.815,-7.613 5.692,-9.822 2.878,-2.211 6.444,-3.316 10.698,-3.316 3.169,0 6.006,0.542 8.508,1.627 2.502,1.083 5.086,2.835 7.757,5.255 l 10.885,-9.634 c -3.171,-3.922 -7.006,-6.987 -11.511,-9.196 -4.504,-2.209 -9.801,-3.316 -15.889,-3.316 -5.005,0 -9.656,0.835 -13.951,2.503 -4.297,1.667 -8.007,4.045 -11.135,7.131 -3.128,3.085 -5.568,6.735 -7.32,10.948 -1.751,4.211 -2.627,8.903 -2.627,14.075 v 0.251 c 0,4.754 0.813,9.259 2.44,13.513 1.626,4.253 3.898,7.964 6.819,11.135 2.918,3.169 6.4,5.671 10.447,7.507 4.044,1.834 8.527,2.753 13.45,2.753 5.587,0 10.426,-1.001 14.513,-3.003 4.086,-2.002 7.486,-4.692 10.198,-8.071 2.709,-3.378 4.711,-7.256 6.005,-11.635 1.293,-4.379 1.939,-8.946 1.939,-13.701 v -0.25 c 0,-0.919 -0.021,-1.711 -0.062,-2.377"
             style="fill:#231f20;fill-opacity:1;fill-rule:nonzero;stroke:none"
             id="path46" />
        </g>
        <g
           id="g48"
           transform="translate(533.6816,165.1627)">
          <path
             d="m 0,0 c -1.335,0.291 -2.836,0.438 -4.504,0.438 -4.588,0 -6.882,-2.42 -6.882,-7.257 v -2.627 h 15.39 v -15.515 h -15.139 v -50.797 h -19.018 v 50.797 h -7.883 v 15.64 h 7.883 v 4.254 c 0,7.422 1.771,12.865 5.318,16.327 3.543,3.461 8.695,5.193 15.451,5.193 3.003,0 5.568,-0.168 7.695,-0.501 2.127,-0.334 4.066,-0.793 5.818,-1.376 V -1.188 C 2.709,-0.688 1.333,-0.293 0,0"
             style="fill:#231f20;fill-opacity:1;fill-rule:nonzero;stroke:none"
             id="path50" />
        </g>
        <g
           id="g52"
           transform="translate(651.1006,91.9694)">
          <path
             d="m 0,0 c -6.214,-2.709 -13.325,-4.066 -21.332,-4.066 -6.84,0 -13.075,1.126 -18.705,3.378 -5.63,2.252 -10.469,5.38 -14.514,9.384 -4.047,4.003 -7.194,8.758 -9.446,14.263 -2.252,5.505 -3.378,11.511 -3.378,18.017 v 0.25 c 0,6.256 1.146,12.115 3.44,17.579 2.294,5.462 5.484,10.259 9.572,14.388 4.086,4.129 8.925,7.382 14.513,9.759 5.588,2.378 11.719,3.566 18.392,3.566 3.92,0 7.486,-0.271 10.698,-0.813 3.21,-0.543 6.194,-1.314 8.946,-2.315 2.752,-1.001 5.337,-2.252 7.757,-3.753 2.418,-1.502 4.755,-3.212 7.007,-5.13 L 0.813,59.868 c -1.669,1.418 -3.336,2.669 -5.004,3.754 -1.67,1.083 -3.4,2.002 -5.192,2.752 -1.795,0.751 -3.735,1.334 -5.819,1.752 -2.086,0.416 -4.379,0.625 -6.881,0.625 -3.503,0 -6.778,-0.732 -9.822,-2.195 -3.045,-1.462 -5.714,-3.427 -8.007,-5.894 -2.295,-2.467 -4.088,-5.35 -5.38,-8.653 -1.294,-3.301 -1.939,-6.834 -1.939,-10.595 v -0.25 c 0,-4.014 0.645,-7.713 1.939,-11.099 1.292,-3.386 3.128,-6.334 5.505,-8.84 2.377,-2.508 5.171,-4.452 8.383,-5.832 3.21,-1.38 6.776,-2.068 10.697,-2.068 7.173,0 13.22,1.763 18.143,5.292 v 12.6 h -19.394 v 16.64 H 16.078 V 9.822 C 11.574,5.984 6.213,2.709 0,0"
             style="fill:#231f20;fill-opacity:1;fill-rule:nonzero;stroke:none"
             id="path54" />
        </g>
        <g
           id="g56"
           transform="translate(723.105,137.8248)">
          <path
             d="m 0,0 c -6.34,0 -11.323,-1.92 -14.952,-5.755 -3.628,-3.838 -5.442,-9.803 -5.442,-17.892 V -48.42 h -19.018 v 67.062 h 19.018 V 5.129 c 1.917,4.587 4.545,8.258 7.882,11.011 3.335,2.753 7.84,4.004 13.513,3.754 L 1.001,0 Z"
             style="fill:#231f20;fill-opacity:1;fill-rule:nonzero;stroke:none"
             id="path58" />
        </g>
        <g
           id="g60"
           transform="translate(786.5391,122.8107)">
          <path
             d="m 0,0 c 0,2.502 -0.418,4.858 -1.251,7.069 -0.835,2.209 -2.045,4.17 -3.628,5.881 -1.586,1.708 -3.463,3.065 -5.631,4.066 -2.17,1.001 -4.547,1.501 -7.132,1.501 -2.752,0 -5.192,-0.481 -7.319,-1.439 -2.127,-0.959 -3.941,-2.273 -5.442,-3.941 -1.502,-1.669 -2.649,-3.609 -3.441,-5.818 -0.794,-2.211 -1.189,-4.567 -1.189,-7.069 V 0 c 0,-2.502 0.417,-4.86 1.251,-7.069 0.833,-2.211 2.043,-4.172 3.629,-5.881 1.583,-1.71 3.441,-3.065 5.568,-4.066 2.127,-1.001 4.523,-1.502 7.194,-1.502 2.752,0 5.192,0.479 7.319,1.439 2.127,0.958 3.941,2.272 5.443,3.942 1.501,1.667 2.647,3.607 3.441,5.818 C -0.397,-5.11 0,-2.752 0,-0.25 Z m 16.015,-13.575 c -1.836,-4.213 -4.379,-7.904 -7.632,-11.073 -3.253,-3.171 -7.091,-5.673 -11.511,-7.507 -4.422,-1.834 -9.259,-2.753 -14.514,-2.753 -5.172,0 -9.968,0.898 -14.388,2.69 -4.422,1.793 -8.238,4.254 -11.448,7.382 -3.212,3.128 -5.736,6.797 -7.57,11.01 -1.835,4.211 -2.752,8.737 -2.752,13.576 V 0 c 0,4.836 0.917,9.362 2.752,13.575 1.834,4.211 4.38,7.902 7.632,11.073 3.253,3.169 7.089,5.671 11.511,7.507 4.42,1.834 9.259,2.753 14.514,2.753 5.171,0 9.966,-0.898 14.388,-2.691 4.42,-1.794 8.236,-4.254 11.448,-7.382 3.21,-3.127 5.734,-6.799 7.57,-11.01 C 17.849,9.612 18.768,5.087 18.768,0.25 V 0 c 0,-4.838 -0.919,-9.364 -2.753,-13.575"
             style="fill:#231f20;fill-opacity:1;fill-rule:nonzero;stroke:none"
             id="path62" />
        </g>
        <g
           id="g64"
           transform="translate(860.9814,89.4044)">
          <path
             d="M 0,0 V 9.587 C -1.085,8.158 -2.273,6.793 -3.565,5.491 -4.86,4.189 -6.299,3.034 -7.882,2.025 -9.468,1.017 -11.219,0.219 -13.137,-0.37 c -1.92,-0.586 -4.088,-0.881 -6.506,-0.881 -7.257,0 -12.868,2.209 -16.828,6.631 -3.963,4.42 -5.944,10.51 -5.944,18.267 v 43.415 h 19.019 V 29.745 c 0,-4.495 1,-7.887 3.002,-10.174 2.002,-2.287 4.837,-3.431 8.508,-3.431 3.67,0 6.569,1.144 8.696,3.431 C -1.063,21.858 0,25.25 0,29.745 V 67.062 H 19.018 V 0 Z"
             style="fill:#231f20;fill-opacity:1;fill-rule:nonzero;stroke:none"
             id="path66" />
        </g>
        <g
           id="g68"
           transform="translate(948.437,123.0607)">
          <path
             d="m 0,0 c 0,2.772 -0.438,5.312 -1.314,7.621 -0.876,2.308 -2.064,4.281 -3.566,5.919 -1.501,1.638 -3.233,2.897 -5.192,3.779 -1.961,0.882 -4.066,1.324 -6.319,1.324 -2.252,0 -4.359,-0.442 -6.318,-1.324 -1.961,-0.882 -3.671,-2.141 -5.13,-3.779 -1.46,-1.638 -2.627,-3.611 -3.503,-5.919 C -32.218,5.312 -32.656,2.772 -32.656,0 v -0.25 c 0,-2.772 0.438,-5.313 1.314,-7.623 0.876,-2.308 2.043,-4.281 3.503,-5.919 1.459,-1.638 3.169,-2.897 5.13,-3.779 1.959,-0.882 4.066,-1.322 6.318,-1.322 2.253,0 4.358,0.44 6.319,1.322 1.959,0.882 3.691,2.141 5.192,3.779 1.502,1.638 2.69,3.589 3.566,5.857 C -0.438,-5.667 0,-3.106 0,-0.25 Z M 16.453,-15.076 C 14.742,-19.374 12.49,-23.002 9.696,-25.961 6.901,-28.923 3.669,-31.154 0,-32.655 c -3.671,-1.502 -7.507,-2.252 -11.511,-2.252 -5.089,0 -9.28,0.993 -12.574,2.979 -3.296,1.986 -6.068,4.303 -8.32,6.952 v -28.699 h -19.018 v 87.081 h 19.018 v -9.55 c 2.334,3.144 5.149,5.73 8.445,7.76 3.294,2.027 7.444,3.042 12.449,3.042 3.92,0 7.714,-0.751 11.386,-2.253 3.669,-1.501 6.922,-3.734 9.759,-6.694 2.834,-2.961 5.108,-6.589 6.819,-10.884 C 18.161,10.529 19.018,5.587 19.018,0 v -0.25 c 0,-5.589 -0.857,-10.531 -2.565,-14.826"
             style="fill:#231f20;fill-opacity:1;fill-rule:nonzero;stroke:none"
             id="path70" />
        </g>
      </g>
    </g>
  </g>
</svg>
