<svg width="929" height="265" viewBox="0 0 929 265" fill="none" xmlns="http://www.w3.org/2000/svg">
<path d="M151.358 65.9168L140.243 93.8227H91.7144V170.033H63.7875V65.9168H151.358Z" fill="#FFF3F6"/>
<path d="M64.274 169.547H91.2274V93.3361H139.913L150.64 66.403H64.274V169.547ZM92.2009 170.519H63.3004V65.4302H152.075L140.574 94.3089H92.2009V170.519Z" fill="#FFF3F6"/>
<path d="M140.434 121.876L121.149 170.104H143.192V149.821H171.119V198.01H80.0135L91.1284 170.104L104.524 136.475L110.364 121.876L121.523 93.9702H171.119V121.876H140.434Z" fill="#FFF3F6"/>
<path d="M80.731 197.523H170.632V150.307H143.679V170.59H120.431L140.104 121.39H170.632V94.4566H121.853L104.976 136.656L80.731 197.523ZM171.606 198.496H79.295L121.193 93.4838H171.606V122.362H140.764L121.868 169.617H142.705V149.335H171.606V198.496Z" fill="#FFF3F6"/>
<path d="M236.731 114.736L225.403 142.364H248.059L236.731 114.736ZM262.554 178.027L254.758 158.918H218.704L210.908 178.027H191.785L228.326 92.2181H245.622L282.164 178.027H262.554Z" fill="#FFF3F6"/>
<mask id="mask0_201_39" style="mask-type:luminance" maskUnits="userSpaceOnUse" x="0" y="0" width="1011" height="265">
<path d="M0 2.5797e-05H1011V265H0V2.5797e-05Z" fill="white"/>
</mask>
<g mask="url(#mask0_201_39)">
<path d="M340.752 145.286C340.752 142.589 340.326 140.118 339.474 137.872C338.621 135.627 337.483 133.708 336.063 132.114C334.641 130.521 332.976 129.296 331.068 128.438C329.16 127.58 327.11 127.15 324.918 127.15C322.725 127.15 320.673 127.58 318.767 128.438C316.858 129.296 315.173 130.521 313.711 132.114C312.25 133.708 311.092 135.605 310.24 137.812C309.388 140.017 308.961 142.509 308.961 145.286V145.529C308.961 148.226 309.388 150.698 310.24 152.945C311.092 155.19 312.25 157.109 313.711 158.703C315.173 160.296 316.858 161.521 318.767 162.379C320.673 163.237 322.725 163.665 324.918 163.665C327.11 163.665 329.16 163.237 331.068 162.379C332.976 161.521 334.641 160.296 336.063 158.703C337.483 157.109 338.621 155.19 339.474 152.945C340.326 150.698 340.752 148.226 340.752 145.529V145.286ZM340.509 178.027V168.736C338.235 171.797 335.494 174.312 332.287 176.285C329.078 178.257 325.039 179.244 320.167 179.244C316.349 179.244 312.655 178.514 309.083 177.053C305.508 175.593 302.341 173.422 299.581 170.541C296.82 167.662 294.607 164.133 292.944 159.952C291.278 155.774 290.447 150.966 290.447 145.529V145.286C290.447 139.851 291.278 135.043 292.944 130.862C294.607 126.684 296.8 123.155 299.521 120.274C302.241 117.395 305.386 115.222 308.961 113.762C312.533 112.301 316.27 111.57 320.167 111.57C325.119 111.57 329.2 112.536 332.409 114.469C335.616 116.401 338.316 118.656 340.509 121.231V89.1754H359.024V178.027H340.509Z" fill="#FFF3F6"/>
<path d="M376.44 89.1751H394.955V178.026H376.44V89.1751Z" fill="#FFF3F6"/>
<path d="M450.862 130.254C448.506 127.698 445.381 126.42 441.483 126.42C437.585 126.42 434.437 127.679 432.042 130.194C429.646 132.709 428.084 136.077 427.354 140.295H455.247C454.677 136.157 453.216 132.81 450.862 130.254ZM473.213 149.546C473.171 150.196 473.111 150.966 473.03 151.858H427.597C428.49 156.078 430.338 159.264 433.138 161.413C435.94 163.564 439.412 164.639 443.553 164.639C446.639 164.639 449.4 164.112 451.836 163.056C454.272 162.002 456.788 160.298 459.388 157.944L469.985 167.316C466.898 171.131 463.164 174.113 458.779 176.262C454.394 178.411 449.237 179.488 443.31 179.488C438.437 179.488 433.91 178.675 429.728 177.053C425.545 175.431 421.933 173.118 418.888 170.116C415.843 167.115 413.467 163.564 411.762 159.465C410.057 155.369 409.204 150.805 409.204 145.773V145.529C409.204 140.904 409.996 136.522 411.579 132.383C413.162 128.246 415.374 124.636 418.218 121.551C421.059 118.468 424.449 116.034 428.389 114.248C432.326 112.464 436.69 111.57 441.483 111.57C446.922 111.57 451.633 112.544 455.612 114.492C459.59 116.439 462.9 119.056 465.54 122.343C468.177 125.629 470.126 129.402 471.386 133.662C472.645 137.922 473.274 142.364 473.274 146.99V147.233C473.274 148.127 473.253 148.898 473.213 149.546Z" fill="#FFF3F6"/>
<path d="M519.559 104.329C518.26 104.046 516.798 103.903 515.175 103.903C510.708 103.903 508.475 106.257 508.475 110.962V113.518H523.457V128.611H508.719V178.027H490.204V128.611H482.53V113.396H490.204V109.258C490.204 102.038 491.928 96.7429 495.382 93.375C498.831 90.0081 503.846 88.3233 510.424 88.3233C513.347 88.3233 515.844 88.4867 517.915 88.8106C519.986 89.1355 521.873 89.5821 523.579 90.1492V105.485C522.197 104.998 520.857 104.614 519.559 104.329Z" fill="#FFF3F6"/>
</g>
</svg>
