<svg id="Layer_1" data-name="Layer 1" xmlns="http://www.w3.org/2000/svg" viewBox="0 0 639.01 600.43"><defs><style>.cls-1{fill:#3d3d4f;}.cls-2{fill:#0074a3;}.cls-3{fill:#ffb160;}.cls-4{fill:#e0e9f0;}</style></defs><title>3</title><polygon class="cls-1" points="639.01 588.78 469.39 594.6 0 696.52 0 970.43 639.01 970.43 639.01 588.78"/><polygon class="cls-2" points="0 0 142.39 30.28 142.39 604.7 0 628.38 0 611.49 129.58 591.11 129.58 42.8 0 17.47 0 0"/><polygon class="cls-2" points="132.49 365.44 0 365.73 0 395.72 136.57 393.39 132.49 365.44"/><polygon class="cls-2" points="169.08 30.87 285.85 58.17 285.85 576.16 169.08 597.51 169.08 582.29 275.34 563.9 275.34 69.47 169.08 46.62 169.08 30.87"/><polygon class="cls-2" points="277.73 360.4 169.08 360.67 169.08 387.71 281.07 385.61 277.73 360.4"/><polygon class="cls-2" points="300.8 51.83 409.6 77.12 409.6 556.77 300.8 576.55 300.8 562.45 399.81 545.43 399.81 87.57 300.8 66.42 300.8 51.83"/><polygon class="cls-2" points="402.04 356.99 300.8 357.23 300.8 382.27 405.15 380.33 402.04 356.99"/><polygon class="cls-3" points="0 673.42 489.58 577.91 639.01 577.91 639.01 604.31 488.81 604.31 0 709.14 0 673.42"/><rect class="cls-2" x="503.17" y="193.93" width="124.24" height="164.23"/><rect class="cls-3" x="517.86" y="213.34" width="94.87" height="125.4"/><polygon class="cls-4" points="639.01 627.8 584.12 627.8 176.46 739.03 639.01 766.4 639.01 627.8"/></svg>
