<svg width="184" height="28" viewBox="0 0 184 28" fill="none" xmlns="http://www.w3.org/2000/svg">
<g clip-path="url(#clip0_9383_1133)">
<path fill-rule="evenodd" clip-rule="evenodd" d="M55.1329 9.01754V5.69629H46.1083H42.5804H42.0719V23.0044H46.1083V16.7134H54.0841V13.424H46.1083V9.01754H55.1329Z" fill="white"/>
<path fill-rule="evenodd" clip-rule="evenodd" d="M71.4054 11.2876L71.2362 9.72266H67.5604V23.0046H71.4054V15.691C71.6731 14.7879 72.2776 14.0224 73.0939 13.5527C73.9102 13.0831 74.8758 12.9453 75.7908 13.1678V9.46439C74.9547 9.35439 74.1045 9.47467 73.3317 9.81227C72.5589 10.1499 71.8929 10.692 71.4054 11.3802V11.2876Z" fill="white"/>
<path d="M62.7928 9.71973H58.7571V23.0041H62.7928V9.71973Z" fill="white"/>
<path fill-rule="evenodd" clip-rule="evenodd" d="M60.7751 7.86792C60.1685 7.88948 59.5782 7.66965 59.1333 7.25661C58.6885 6.84357 58.4256 6.271 58.4021 5.66439C58.4473 5.06598 58.7168 4.50673 59.1567 4.09867C59.5967 3.69061 60.1745 3.46387 60.7745 3.46387C61.3745 3.46387 61.9523 3.69061 62.3923 4.09867C62.8322 4.50673 63.1017 5.06598 63.1469 5.66439C63.1236 6.27084 62.8608 6.84331 62.4162 7.25635C61.9717 7.66939 61.3815 7.88931 60.7751 7.86792Z" fill="white"/>
<path fill-rule="evenodd" clip-rule="evenodd" d="M78.5564 16.5855C78.5564 19.9706 81.0987 23.1643 85.8649 23.1643C88.9476 23.1643 90.4417 22.1422 91.5536 21.0245L89.3929 18.7891C88.9321 19.242 88.3855 19.5982 87.7851 19.8367C87.1847 20.0752 86.5427 20.1912 85.8968 20.1779C85.0714 20.2283 84.2542 19.9898 83.5854 19.5034C82.9166 19.0169 82.4379 18.3128 82.2315 17.5119H92.4129C92.4129 17.5119 93.0496 9.42773 85.6129 9.42773C80.4633 9.42773 78.5564 13.2005 78.5564 16.5855ZM82.2462 15.1482C82.3728 14.3391 82.7918 13.6046 83.4237 13.0838C84.0556 12.563 84.8566 12.2922 85.6748 12.3226C88.1539 12.3226 88.8028 14.7329 88.8366 15.1482H82.2462Z" fill="white"/>
<path d="M117.739 4.67383H113.672V22.9076H117.739V4.67383Z" fill="white"/>
<path fill-rule="evenodd" clip-rule="evenodd" d="M121.585 16.2335C121.585 20.0437 124.843 23.1318 128.863 23.1318C132.882 23.1318 136.139 20.0437 136.139 16.2335C136.139 12.4233 132.881 9.33643 128.862 9.33643C124.844 9.33643 121.585 12.4252 121.585 16.2335ZM125.367 16.2335C125.389 15.5471 125.612 14.8825 126.01 14.3224C126.407 13.7623 126.96 13.3317 127.601 13.0841C128.241 12.8366 128.94 12.7832 129.611 12.9305C130.282 13.0778 130.894 13.4194 131.372 13.9126C131.849 14.4058 132.171 15.0288 132.298 15.7038C132.424 16.3789 132.348 17.0761 132.08 17.7086C131.813 18.341 131.365 18.8806 130.793 19.2601C130.221 19.6396 129.549 19.8421 128.863 19.8425C128.396 19.8352 127.936 19.7361 127.507 19.5508C127.079 19.3655 126.692 19.0976 126.367 18.7624C126.042 18.4273 125.787 18.0315 125.615 17.5976C125.443 17.1636 125.359 16.7001 125.366 16.2335H125.367Z" fill="white"/>
<path fill-rule="evenodd" clip-rule="evenodd" d="M149.132 18.097C148.831 18.6251 148.396 19.0647 147.871 19.3716C147.346 19.6786 146.749 19.8422 146.141 19.846C145.203 19.8186 144.312 19.4264 143.657 18.7527C143.003 18.0789 142.637 17.1766 142.637 16.2373C142.637 15.2981 143.003 14.3958 143.657 13.722C144.312 13.0483 145.203 12.6561 146.141 12.6287C146.78 12.6326 147.405 12.8121 147.948 13.1475C148.491 13.483 148.931 13.9614 149.221 14.5304L152.364 12.6587C151.688 11.6286 150.763 10.7847 149.676 10.2046C148.589 9.62458 147.373 9.32683 146.141 9.33872C142.122 9.33872 138.865 12.4262 138.865 16.2358C138.865 20.0454 142.122 23.1341 146.141 23.1341C147.351 23.1448 148.545 22.8572 149.618 22.2969C150.691 21.7366 151.609 20.9208 152.292 19.9215L149.132 18.097Z" fill="white"/>
<path fill-rule="evenodd" clip-rule="evenodd" d="M165.599 23.1315H170.112L164.06 15.1431L169.571 9.78335H165.028L159.467 15.1916V4.73828H155.749V23.1315H159.467V19.6097L161.462 17.6699L165.599 23.1315Z" fill="white"/>
<path fill-rule="evenodd" clip-rule="evenodd" d="M183.428 10.6566C181.815 9.81244 180.015 9.38797 178.195 9.42234C174.997 9.42234 172.158 11.1676 172.158 13.8073C172.158 16.447 174.678 17.3623 176.374 17.6396C178.069 17.9169 180.272 17.8525 180.272 19.1088C180.272 20.3652 176.543 21.0455 173.259 18.9377L171.988 21.7694C171.988 21.7694 173.895 23.1319 178.089 23.1319C182.284 23.1319 184.001 20.8964 184.001 18.8739C184.001 16.8513 182.624 15.5962 179.658 15.0422C176.693 14.4883 175.93 14.4245 175.93 13.6368C175.93 12.8491 177.858 11.2738 182.115 13.5092L183.428 10.6566Z" fill="white"/>
<path fill-rule="evenodd" clip-rule="evenodd" d="M100.293 5.64014V11.7937H100.347C100.846 11.1331 101.499 10.6049 102.249 10.2553C103 9.90571 103.824 9.74537 104.651 9.78833C105.455 9.78377 106.255 9.92339 107.01 10.2006C107.748 10.4727 108.421 10.8958 108.986 11.4428C109.581 12.0278 110.041 12.7356 110.335 13.5169C110.676 14.4364 110.841 15.4117 110.823 16.3922C110.833 17.5634 110.606 18.7246 110.155 19.8055C109.726 20.8353 109.002 21.715 108.074 22.3335C107.028 22.9964 105.806 23.3276 104.568 23.2838C102.554 23.2838 101.12 22.6343 100.265 21.3354H100.211V22.9476H96.384V5.64014H100.293ZM106.006 13.8255C105.711 13.4424 105.325 13.1393 104.883 12.944C104.441 12.7488 103.957 12.6675 103.475 12.7078C101.244 12.7078 100.129 14.0821 100.129 16.8308C100.098 17.7794 100.403 18.7086 100.991 19.4533C101.314 19.8184 101.716 20.1039 102.167 20.2875C102.617 20.4711 103.105 20.5478 103.59 20.5116C104.271 20.5417 104.939 20.3237 105.471 19.8981C105.943 19.5033 106.298 18.9864 106.496 18.4037C106.694 17.8358 106.797 17.2387 106.799 16.637C106.837 15.6397 106.56 14.6558 106.006 13.8255Z" fill="white"/>
<path fill-rule="evenodd" clip-rule="evenodd" d="M6.99879 19.5999H22.3936L14.6588 7.00015L6.99879 19.5999ZM0 28V0H29.3942V28H0Z" fill="white"/>
</g>
<defs>
<clipPath id="clip0_9383_1133">
<rect width="184" height="28" fill="white"/>
</clipPath>
</defs>
</svg>
