<svg width="565" height="131" viewBox="0 0 565 131" fill="none" xmlns="http://www.w3.org/2000/svg">
<g clip-path="url(#clip0_905_2)">
<path d="M198.3 48.1399H210.69C213.64 48.1399 215.87 48.8499 217.4 50.2599C219.01 51.8799 219.84 54.0999 219.69 56.3799C219.74 57.7699 219.44 59.1499 218.82 60.3899C218.19 61.5099 217.27 62.4399 216.17 63.0899C217.23 63.2799 218.25 63.6399 219.2 64.1499C220.77 64.9799 221.93 66.4399 222.38 68.1599C222.59 69.0399 222.69 69.9499 222.68 70.8599C222.71 72.2199 222.45 73.5599 221.93 74.8099C221.43 75.9399 220.67 76.9399 219.71 77.7399C218.7 78.5699 217.52 79.1799 216.25 79.5199C214.76 79.9399 213.21 80.1399 211.66 80.1099H198.29V48.1399H198.3ZM206.62 60.6999H208.15C210.76 60.6999 212.05 59.6399 212.05 57.5999C212.05 55.5599 210.76 54.4999 208.15 54.4999H206.62V60.6899V60.6999ZM206.62 73.7499H208.44C209.99 73.8599 211.53 73.5799 212.95 72.9399C213.86 72.3999 214.38 71.3999 214.31 70.3399C214.38 69.2899 213.86 68.2899 212.95 67.7499C211.54 67.1099 209.99 66.8299 208.44 66.9399H206.62V73.7299V73.7499Z" fill="white"/>
<path d="M248.72 48.1399V73.0999H258.72V80.1099H240.4V48.1399H248.72V48.1399Z" fill="white"/>
<path d="M273.64 64.15C273.54 57.26 277.74 51.04 284.16 48.55C288.77 46.83 293.84 46.83 298.45 48.55C300.54 49.36 302.45 50.58 304.07 52.14C305.64 53.67 306.89 55.49 307.75 57.5C308.63 59.6 309.08 61.86 309.06 64.15C309.08 66.43 308.63 68.69 307.75 70.79C306.89 72.81 305.64 74.64 304.07 76.16C302.45 77.72 300.54 78.93 298.45 79.74C293.85 81.48 288.77 81.48 284.16 79.74C277.72 77.26 273.5 71.05 273.56 64.15H273.64V64.15ZM282.34 64.15C282.34 65.36 282.59 66.56 283.09 67.67C283.55 68.72 284.21 69.67 285.04 70.47C285.87 71.26 286.84 71.89 287.9 72.33C291.25 73.68 295.09 72.96 297.72 70.47C298.55 69.68 299.22 68.72 299.69 67.67C300.18 66.56 300.42 65.36 300.41 64.15C300.42 62.94 300.17 61.73 299.69 60.62C298.72 58.48 296.95 56.81 294.75 55.98C292.53 55.1 290.05 55.1 287.83 55.98C286.78 56.42 285.82 57.06 285.01 57.86C284.2 58.65 283.55 59.59 283.09 60.63C282.59 61.74 282.33 62.94 282.34 64.16V64.15Z" fill="white"/>
<path d="M350.14 58.84C348.45 56.61 345.8 55.31 343.01 55.32C341.82 55.31 340.65 55.54 339.55 56C338.53 56.43 337.6 57.06 336.82 57.86C336.06 58.66 335.46 59.6 335.05 60.63C334.17 62.88 334.17 65.38 335.05 67.64C335.9 69.74 337.54 71.42 339.62 72.31C340.69 72.76 341.85 73 343.01 72.99C345.78 72.94 348.4 71.7 350.19 69.59V79.44L349.34 79.74C348.18 80.17 346.99 80.5 345.78 80.75C344.7 80.96 343.6 81.07 342.5 81.07C338.14 81.05 333.96 79.33 330.84 76.29C329.27 74.75 328.02 72.92 327.13 70.91C326.18 68.77 325.7 66.44 325.72 64.09C325.7 61.76 326.17 59.45 327.11 57.32C329.81 51.24 335.82 47.31 342.47 47.28C343.74 47.28 345 47.42 346.23 47.68C347.56 47.98 348.86 48.4 350.11 48.93L350.14 58.86V58.84Z" fill="white"/>
<path d="M377.81 61.3399L387.95 48.1399H398.22L385.5 63.2999L399.41 80.1099H388.63L377.81 66.2699V80.1099H369.49V48.1399H377.81V61.3399Z" fill="white"/>
<path d="M424.17 80.1099H415.85V48.1399H429.09C432.69 48.1399 435.44 49.0699 437.35 50.9399C439.26 52.8099 440.21 55.4399 440.21 58.8399C440.21 62.2499 439.26 64.8799 437.35 66.7399C435.44 68.5999 432.69 69.5199 429.09 69.5199H424.17V80.1199V80.1099ZM424.17 62.7999H426.93C429.98 62.7999 431.52 61.4599 431.52 58.7999C431.52 56.1399 429.98 54.8099 426.93 54.8099H424.17V62.7899V62.7999Z" fill="white"/>
<path d="M475.19 74.5899H463.31L461.4 80.1099H452.53L464.71 48.1399H473.79L485.97 80.1099H477.09L475.19 74.5899ZM472.99 68.2299L469.26 57.6299L465.52 68.2799L472.99 68.2299Z" fill="white"/>
<path d="M519.93 56.3401C519.12 55.6501 518.2 55.0901 517.22 54.6801C516.38 54.3401 515.49 54.1601 514.58 54.1501C513.64 54.1101 512.72 54.3801 511.95 54.9101C511.28 55.3501 510.89 56.1001 510.89 56.9001C510.87 57.4101 511.05 57.9201 511.4 58.3001C511.78 58.7001 512.23 59.0201 512.74 59.2501C513.34 59.5401 513.96 59.7801 514.61 59.9501C515.32 60.1501 516.01 60.3601 516.68 60.5901C518.98 61.2201 521.05 62.4801 522.68 64.2201C524 65.9001 524.67 68.0001 524.57 70.1401C524.59 71.6701 524.31 73.1801 523.74 74.6001C523.2 75.9101 522.38 77.0701 521.32 78.0101C520.18 79.0201 518.83 79.7901 517.38 80.2601C515.67 80.8201 513.88 81.0901 512.08 81.0601C508.05 81.0601 504.11 79.8001 500.83 77.4501L504.39 70.7401C505.49 71.7501 506.74 72.5801 508.09 73.2101C509.22 73.7301 510.45 74.0101 511.69 74.0201C512.78 74.1001 513.87 73.7701 514.72 73.0901C515.34 72.5601 515.7 71.7901 515.72 70.9701C515.72 70.5401 515.64 70.1101 515.47 69.7201C515.27 69.3301 514.98 69.0001 514.62 68.7401C514.14 68.4001 513.62 68.1201 513.07 67.9101C512.43 67.6601 511.66 67.3701 510.76 67.0601C509.7 66.7201 508.64 66.3501 507.58 65.9401C506.58 65.5501 505.64 65.0001 504.81 64.3101C503.99 63.6001 503.32 62.7301 502.86 61.7401C502.32 60.5001 502.07 59.1601 502.12 57.8101C502.1 56.3401 502.37 54.8801 502.9 53.5101C503.4 52.2601 504.15 51.1301 505.1 50.1901C506.1 49.2501 507.29 48.5301 508.59 48.0701C510.1 47.5201 511.7 47.2501 513.31 47.2701C514.99 47.2801 516.66 47.5001 518.28 47.9301C520.01 48.3701 521.67 49.0101 523.24 49.8601L519.93 56.3601V56.3401Z" fill="white"/>
<path d="M560.09 56.34C559.28 55.65 558.36 55.09 557.38 54.68C556.55 54.34 555.65 54.16 554.75 54.15C553.81 54.1 552.88 54.37 552.11 54.91C551.44 55.35 551.05 56.1 551.05 56.9C551.03 57.41 551.21 57.92 551.56 58.3C551.94 58.7 552.39 59.02 552.9 59.25C553.5 59.54 554.13 59.78 554.78 59.95C555.47 60.15 556.16 60.36 556.84 60.59C559.14 61.22 561.22 62.47 562.84 64.22C564.16 65.9 564.83 68 564.74 70.14C564.76 71.67 564.48 73.18 563.91 74.6C563.37 75.91 562.54 77.07 561.48 78.01C560.34 79 559.02 79.75 557.58 80.21C555.89 80.76 554.11 81.03 552.33 81.01C548.3 81.01 544.36 79.75 541.08 77.4L544.65 70.69C545.74 71.7 546.99 72.54 548.34 73.16C549.47 73.68 550.7 73.95 551.94 73.97C553.04 74.05 554.12 73.72 554.98 73.04C555.95 72.2 556.25 70.83 555.72 69.66C555.52 69.27 555.23 68.94 554.87 68.68C554.39 68.34 553.86 68.06 553.31 67.85C552.67 67.6 551.91 67.31 551 67C549.94 66.66 548.88 66.29 547.82 65.88C546.82 65.49 545.89 64.94 545.06 64.25C544.23 63.54 543.56 62.67 543.1 61.68C542.57 60.44 542.31 59.1 542.36 57.75C542.34 56.28 542.61 54.82 543.14 53.45C543.64 52.2 544.39 51.07 545.36 50.13C546.36 49.19 547.54 48.47 548.84 48.01C550.32 47.49 551.89 47.24 553.46 47.27C555.14 47.28 556.81 47.5 558.43 47.93C560.16 48.37 561.83 49.02 563.4 49.86L560.08 56.36L560.09 56.34Z" fill="white"/>
<path d="M175.69 45.0801H135.23V85.5401H175.69V45.0801Z" fill="white"/>
<path d="M85.5401 45.0801H45.0801V85.5401H85.5401V45.0801Z" fill="white"/>
<path d="M40.46 45.0801H0V85.5401H40.46V45.0801Z" fill="white"/>
<path d="M40.46 0H0V40.46H40.46V0Z" fill="white"/>
<path d="M130.61 45.0801H90.1499V85.5401H130.61V45.0801Z" fill="white"/>
<path d="M130.61 90.1501H90.1499V130.61H130.61V90.1501Z" fill="white"/>
</g>
<defs>
<clipPath id="clip0_905_2">
<rect width="564.73" height="130.61" fill="white"/>
</clipPath>
</defs>
</svg>