<svg width="168" height="24" viewBox="0 0 168 24" fill="none" xmlns="http://www.w3.org/2000/svg">
<path fill-rule="evenodd" clip-rule="evenodd" d="M2.3244 0H19.7647V4.73444L17.4403 7.05883H9.17648V8.4706H17.6471V13.205L15.3227 15.5294H9.17648V16.9412H19.7647V21.6756L17.4403 24H0V2.32439L2.3244 0ZM0.852077 2.47059H17.2941V6.20673L19.0588 4.44204V0.705882H2.61678L0.852077 2.47059ZM8.47058 6.98822H6.70588V10.9412H15.1765V14.6773L16.9412 12.9126V9.17648H8.47058V6.98822ZM8.47058 15.4823H6.70588V19.4118H17.2941V23.1479L19.0588 21.3832V17.647H8.47058V15.4823Z" fill="white"/>
<path fill-rule="evenodd" clip-rule="evenodd" d="M32.4706 0H25.6186L23.2942 2.32439V24H40.7346L43.0589 21.6756V16.9412H32.4706V0ZM24.1463 2.47059L25.911 0.705882H31.7649V17.647H42.3531V21.3832L40.5882 23.1479V19.4118H30.0001V2.47059H24.1463Z" fill="white"/>
<path fill-rule="evenodd" clip-rule="evenodd" d="M55.7648 0H48.9127L46.5884 2.32439V24H64.0287L66.353 21.6756V16.9412H55.7648V0ZM53.2941 2.47059H47.4402L49.2052 0.705882H55.059V17.647H65.6469V21.3832L63.8823 23.1479V19.4118H53.2941V2.47059Z" fill="white"/>
<path fill-rule="evenodd" clip-rule="evenodd" d="M72.2069 0H79.059V21.6756L76.7344 24H69.8823V2.32439L72.2069 0ZM70.7345 2.47059H76.5883V23.1479L78.3529 21.3832V0.705882H72.4991L70.7345 2.47059Z" fill="white"/>
<path fill-rule="evenodd" clip-rule="evenodd" d="M104.47 0H84.9127L82.5881 2.32439V24H89.4402L91.7648 21.6756V15.5294H102.146L104.47 13.205V0ZM83.4403 2.47059L85.2049 0.705882H103.765V12.9126L102 14.6773V2.47059H83.4403ZM89.2941 23.1479L91.0587 21.3832V15.4588H89.2941V23.1479ZM91.7648 8.4706V6.70587H97.7647V8.4706H91.7648ZM97.7647 9.17648H91.5579L89.7933 10.9412H97.7647V9.17648ZM89.2941 10.442L91.0587 8.67734V6.70587H89.2941V10.442Z" fill="white"/>
<path fill-rule="evenodd" clip-rule="evenodd" d="M110.324 0H132V4.73444L129.676 7.05883H129.53V7.08234H123.529V21.6756L121.205 24H114.353V7.05883H108V2.32439L110.324 0ZM131.294 4.44204L129.53 6.20673V2.47059H108.852L110.617 0.705882H131.294V4.44204ZM122.824 21.3832L121.059 23.1479V7.08234H122.824V21.3832Z" fill="white"/>
<path fill-rule="evenodd" clip-rule="evenodd" d="M168 0H150.56L148.235 2.32439V24H165.676L168 21.6756V16.9412H157.412V7.05883H165.676L168 4.73444V0ZM149.088 2.47059L150.852 0.705882H167.294V4.44204L165.529 6.20673V2.47059H149.088ZM165.529 23.1479L167.294 21.3832V17.647H156.706V7.01177H154.941V19.4118H165.529V23.1479Z" fill="white"/>
<path fill-rule="evenodd" clip-rule="evenodd" d="M137.854 0H144.706V21.6756L142.381 24H135.529V2.32439L137.854 0ZM138.146 0.705882L136.381 2.47059H142.235V23.1479L144 21.3832V0.705882H138.146Z" fill="white"/>
</svg>
