<svg viewBox="0 0 326 56" fill="none" xmlns="http://www.w3.org/2000/svg"><g><path fill="white" d="m46.15,13.35c-12.89,0-21.36,8.39-21.36,21.21s8.39,21.21,21.36,21.21,21.29-8.39,21.29-21.21-8.39-21.21-21.29-21.21Z"></path><path fill="red" d="m38.56,30.68c-1.94,0-3.21-1.26-3.21-3.18s1.27-3.18,3.21-3.18,3.19,1.26,3.19,3.18-1.26,3.18-3.19,3.18Z"></path><path fill="red" d="m53.66,30.68c-1.94,0-3.21-1.26-3.21-3.18s1.27-3.18,3.21-3.18,3.19,1.26,3.19,3.18-1.26,3.18-3.19,3.18Z"></path></g><path fill-rule="evenodd" clip-rule="evenodd" d="M4.05761 43.0438V23.8969H0V16.6986C4.6721 15.1672 6.81471 12.7157 7.4292 7.27958L7.66004 5.28979H15.8533V13.5611H23.4353V23.9002H15.8533V40.9792C15.8533 43.4307 17.079 44.2728 18.916 44.2728C20.0637 44.2728 21.5203 43.9672 23.0517 43.2779V54.6119C20.9838 55.2231 18.6104 55.6068 16.0061 55.6068C8.11847 55.6068 4.05761 51.8548 4.05761 43.047V43.0438Z" fill="white"></path><path fill-rule="evenodd" clip-rule="evenodd" d="M70.2021 0.00325447H81.9946V28.5691H82.1474L90.8023 13.5579H103.82L92.7173 30.3313C98.3096 31.557 101.756 35.8455 101.756 43.0438V55.0671H90.0383V44.728C90.0383 40.898 88.5069 39.1358 85.2914 39.1358H81.9978V55.0639H70.2054V0L70.2021 0.00325447Z" fill="white"></path><path fill-rule="evenodd" clip-rule="evenodd" d="M103.255 34.3891C103.255 21.3709 111.679 13.0996 124.164 13.0996C136.649 13.0996 145.3 21.9821 142.469 38.0663H115.665C117.122 42.8131 121.332 44.881 126.846 44.881C131.057 44.881 135.654 43.7333 139.253 41.2038V52.9214C135.27 54.7584 130.445 55.5257 126.157 55.5257C111.682 55.5257 103.258 47.1016 103.258 34.3891H103.255ZM131.59 29.2585C131.053 25.2009 127.838 23.0551 123.855 23.0551C119.872 23.0551 116.884 25.4285 115.662 29.2585H131.59Z" fill="white"></path><path fill-rule="evenodd" clip-rule="evenodd" d="M145.71 13.5579H156.124V16.9262H156.276C158.728 14.4 161.943 13.0962 165.848 13.0962C173.736 13.0962 178.944 18.3048 178.944 26.6508V55.0638H167.149V29.5607C167.149 26.1924 165.312 24.1994 162.324 24.1994C159.336 24.1994 157.499 26.1891 157.499 29.5607V55.0638H145.703V13.5546L145.71 13.5579Z" fill="white"></path><path fill-rule="evenodd" clip-rule="evenodd" d="M181.926 48.0215C181.926 43.7331 185.067 40.7451 189.508 40.7451C193.949 40.7451 197.012 43.7331 197.012 48.0215C197.012 52.31 193.949 55.4507 189.508 55.4507C185.067 55.4507 181.926 52.388 181.926 48.0215Z" fill="white"></path><path fill-rule="evenodd" clip-rule="evenodd" d="M197.704 34.389C197.704 21.4456 206.281 13.1743 218.457 13.1743C220.372 13.1743 222.515 13.3271 224.738 14.0164V25.8121C222.976 24.97 221.139 24.5116 219.377 24.5116C214.016 24.5116 210.033 28.2636 210.033 34.3922C210.033 40.5209 214.016 44.1949 219.377 44.1949C221.139 44.1949 222.976 43.7365 224.738 42.8944V54.69C222.518 55.3793 220.372 55.5321 218.457 55.5321C206.281 55.5321 197.704 47.2609 197.704 34.3955V34.389Z" fill="white"></path><path fill-rule="evenodd" clip-rule="evenodd" d="M226.621 34.3141C226.621 21.6016 235.045 13.0247 247.758 13.0247C260.47 13.0247 268.819 21.5268 268.819 34.3141C268.819 47.1014 260.395 55.6036 247.758 55.6036C235.12 55.6036 226.621 47.1014 226.621 34.3141ZM247.758 44.042C252.966 44.042 256.565 40.0591 256.565 34.3141C256.565 28.5691 252.966 24.5895 247.758 24.5895C242.549 24.5895 238.875 28.4943 238.875 34.3141C238.875 40.1339 242.552 44.042 247.758 44.042Z" fill="white"></path><path fill-rule="evenodd" clip-rule="evenodd" d="M271.443 13.5579H281.857V16.9262H282.01C284.536 14.2471 287.602 13.0962 291.354 13.0962C295.795 13.0962 299.32 14.7056 301.54 17.7683H301.693C304.298 14.6275 307.819 13.0962 312.11 13.0962C320.076 13.0962 325.129 18.2267 325.129 26.6508V55.0638H313.411V29.5607C313.411 26.1924 311.727 24.1994 308.817 24.1994C305.907 24.1994 304.223 26.1891 304.223 29.5607V55.0638H292.427V29.5607C292.427 26.1924 290.743 24.1994 287.833 24.1994C284.923 24.1994 283.239 26.1891 283.239 29.5607V55.0638H271.446V13.5546L271.443 13.5579Z" fill="white"></path></svg>
